<svg width="518" height="519" viewBox="0 0 518 519" fill="none" xmlns="http://www.w3.org/2000/svg">
<g filter="url(#filter0_d_2_9)">
<rect x="4" y="1" width="510" height="510" rx="96" fill="#444B99"/>
<g clip-path="url(#clip0_2_9)">
<path d="M19 109.337C19 57.7844 60.7844 16 112.337 16H162.034C176.763 16 188.697 27.9438 188.697 42.6625C188.697 57.3813 176.753 69.325 162.034 69.325H112.337C90.25 69.325 72.3344 87.2313 72.3344 109.328V159.025C72.3344 173.753 60.3906 185.688 45.6719 185.688C30.9531 185.688 19 173.763 19 159.034V109.337ZM329.303 42.6625C329.303 27.9438 341.247 16 355.966 16H405.663C457.216 16 499 57.7844 499 109.337V159.034C499 173.763 487.066 185.697 472.337 185.697C457.609 185.697 445.675 173.753 445.675 159.034V109.337C445.675 87.25 427.769 69.3344 405.672 69.3344H355.975C341.247 69.3344 329.303 57.3906 329.303 42.6625ZM45.6625 326.303C60.3906 326.303 72.325 338.237 72.325 352.966V402.663C72.325 424.75 90.2313 442.666 112.328 442.666H162.025C176.753 442.666 188.688 454.609 188.688 469.328C188.688 484.056 176.744 495.991 162.025 495.991H112.337C60.7844 496 19 454.216 19 402.663V352.966C19 338.247 30.9438 326.303 45.6625 326.303ZM472.337 326.303C487.066 326.303 499 338.237 499 352.966V402.663C499 454.206 457.216 496 405.663 496H355.966C341.237 496 329.303 484.066 329.303 469.337C329.303 454.609 341.247 442.675 355.966 442.675H405.663C427.75 442.675 445.666 424.769 445.666 402.672V352.975C445.666 338.247 457.609 326.303 472.337 326.303ZM205.666 122.669H125.669V202.666H205.666V309.334H125.669V389.331H205.666V309.334H312.334V389.331H392.331V309.334H312.334V202.666H392.331V122.669H312.334V202.666H205.666V122.669Z" fill="white"/>
</g>
</g>
<defs>
<filter id="filter0_d_2_9" x="-1" y="0" width="520" height="520" filterUnits="userSpaceOnUse" color-interpolation-filters="sRGB">
<feFlood flood-opacity="0" result="BackgroundImageFix"/>
<feColorMatrix in="SourceAlpha" type="matrix" values="0 0 0 0 0 0 0 0 0 0 0 0 0 0 0 0 0 0 127 0" result="hardAlpha"/>
<feOffset dy="4"/>
<feGaussianBlur stdDeviation="2"/>
<feComposite in2="hardAlpha" operator="out"/>
<feColorMatrix type="matrix" values="0 0 0 0 0 0 0 0 0 0 0 0 0 0 0 0 0 0 0.25 0"/>
<feBlend mode="normal" in2="BackgroundImageFix" result="effect1_dropShadow_2_9"/>
<feBlend mode="normal" in="SourceGraphic" in2="effect1_dropShadow_2_9" result="shape"/>
</filter>
<clipPath id="clip0_2_9">
<rect width="480" height="480" fill="white" transform="translate(19 16)"/>
</clipPath>
</defs>
</svg>
