<svg width="512" height="512" viewBox="0 0 511 511" fill="none" xmlns="http://www.w3.org/2000/svg">
<path d="M0 96.3765C0 43.1492 43.1492 0 96.3765 0H415.624C468.851 0 512 43.1492 512 96.3765V415.624C512 468.851 468.851 512 415.624 512H96.3765C43.1492 512 0 468.851 0 415.624V96.3765Z" fill="#444B99"/>
<path d="M15.0588 108.762C15.0588 57.0071 57.0071 15.0588 108.762 15.0588H158.654C173.44 15.0588 185.421 27.0494 185.421 41.8259C185.421 56.6024 173.431 68.5929 158.654 68.5929H108.762C86.5882 68.5929 68.6024 86.5694 68.6024 108.753V158.645C68.6024 173.431 56.6118 185.412 41.8353 185.412C27.0588 185.412 15.0588 173.44 15.0588 158.654V108.762ZM326.579 41.8259C326.579 27.0494 338.569 15.0588 353.346 15.0588H403.238C454.993 15.0588 496.941 57.0071 496.941 108.762V158.654C496.941 173.44 484.96 185.421 470.174 185.421C455.388 185.421 443.407 173.431 443.407 158.654V108.762C443.407 86.5882 425.431 68.6024 403.247 68.6024H353.355C338.569 68.6024 326.579 56.6118 326.579 41.8259ZM41.8259 326.579C56.6118 326.579 68.5929 338.56 68.5929 353.346V403.238C68.5929 425.412 86.5694 443.398 108.753 443.398H158.645C173.431 443.398 185.412 455.388 185.412 470.165C185.412 484.951 173.421 496.932 158.645 496.932H108.762C57.0071 496.941 15.0588 454.993 15.0588 403.238V353.346C15.0588 338.569 27.0494 326.579 41.8259 326.579ZM470.174 326.579C484.96 326.579 496.941 338.56 496.941 353.346V403.238C496.941 454.984 454.993 496.941 403.238 496.941H353.346C338.56 496.941 326.579 484.96 326.579 470.174C326.579 455.388 338.569 443.407 353.346 443.407H403.238C425.412 443.407 443.398 425.431 443.398 403.247V353.355C443.398 338.569 455.388 326.579 470.174 326.579ZM202.456 122.146H122.146V202.456H202.456V309.544H122.146V389.854H202.456V309.544H309.544V389.854H389.854V309.544H309.544V202.456H389.854V122.146H309.544V202.456H202.456V122.146Z" fill="white"/>
</svg>
