<svg xmlns="http://www.w3.org/2000/svg" width="1200" height="1200">
    <defs>
        <clipPath id="clip-path-dot-color">
            <rect x="5" y="333" width="41" height="41" transform="rotate(0,25.5,353.5)"></rect>
            <rect x="5" y="374" width="41" height="41" transform="rotate(0,25.5,394.5)"></rect>
            <rect x="5" y="497" width="41" height="41" transform="rotate(0,25.5,517.5)"></rect>
            <rect x="5" y="579" width="41" height="41" transform="rotate(0,25.5,599.5)"></rect>
            <rect x="5" y="702" width="41" height="41" transform="rotate(0,25.5,722.5)"></rect>
            <rect x="5" y="825" width="41" height="41" transform="rotate(0,25.5,845.5)"></rect>
            <rect x="46" y="374" width="41" height="41" transform="rotate(0,66.5,394.5)"></rect>
            <rect x="46" y="661" width="41" height="41" transform="rotate(0,66.5,681.5)"></rect>
            <rect x="46" y="784" width="41" height="41" transform="rotate(0,66.5,804.5)"></rect>
            <rect x="46" y="825" width="41" height="41" transform="rotate(0,66.5,845.5)"></rect>
            <rect x="87" y="374" width="41" height="41" transform="rotate(0,107.5,394.5)"></rect>
            <rect x="87" y="538" width="41" height="41" transform="rotate(0,107.5,558.5)"></rect>
            <rect x="87" y="579" width="41" height="41" transform="rotate(0,107.5,599.5)"></rect>
            <rect x="87" y="743" width="41" height="41" transform="rotate(0,107.5,763.5)"></rect>
            <rect x="87" y="825" width="41" height="41" transform="rotate(0,107.5,845.5)"></rect>
            <rect x="128" y="333" width="41" height="41" transform="rotate(0,148.5,353.5)"></rect>
            <rect x="128" y="415" width="41" height="41" transform="rotate(0,148.5,435.5)"></rect>
            <rect x="128" y="456" width="41" height="41" transform="rotate(0,148.5,476.5)"></rect>
            <rect x="128" y="538" width="41" height="41" transform="rotate(0,148.5,558.5)"></rect>
            <rect x="128" y="579" width="41" height="41" transform="rotate(0,148.5,599.5)"></rect>
            <rect x="128" y="620" width="41" height="41" transform="rotate(0,148.5,640.5)"></rect>
            <rect x="128" y="743" width="41" height="41" transform="rotate(0,148.5,763.5)"></rect>
            <rect x="128" y="784" width="41" height="41" transform="rotate(0,148.5,804.5)"></rect>
            <rect x="128" y="825" width="41" height="41" transform="rotate(0,148.5,845.5)"></rect>
            <rect x="169" y="374" width="41" height="41" transform="rotate(0,189.5,394.5)"></rect>
            <rect x="169" y="497" width="41" height="41" transform="rotate(0,189.5,517.5)"></rect>
            <rect x="169" y="579" width="41" height="41" transform="rotate(0,189.5,599.5)"></rect>
            <rect x="169" y="620" width="41" height="41" transform="rotate(0,189.5,640.5)"></rect>
            <rect x="169" y="661" width="41" height="41" transform="rotate(0,189.5,681.5)"></rect>
            <rect x="169" y="702" width="41" height="41" transform="rotate(0,189.5,722.5)"></rect>
            <rect x="169" y="784" width="41" height="41" transform="rotate(0,189.5,804.5)"></rect>
            <rect x="210" y="374" width="41" height="41" transform="rotate(0,230.5,394.5)"></rect>
            <rect x="210" y="497" width="41" height="41" transform="rotate(0,230.5,517.5)"></rect>
            <rect x="210" y="538" width="41" height="41" transform="rotate(0,230.5,558.5)"></rect>
            <rect x="210" y="579" width="41" height="41" transform="rotate(0,230.5,599.5)"></rect>
            <rect x="210" y="743" width="41" height="41" transform="rotate(0,230.5,763.5)"></rect>
            <rect x="210" y="784" width="41" height="41" transform="rotate(0,230.5,804.5)"></rect>
            <rect x="251" y="333" width="41" height="41" transform="rotate(0,271.5,353.5)"></rect>
            <rect x="251" y="415" width="41" height="41" transform="rotate(0,271.5,435.5)"></rect>
            <rect x="251" y="497" width="41" height="41" transform="rotate(0,271.5,517.5)"></rect>
            <rect x="251" y="579" width="41" height="41" transform="rotate(0,271.5,599.5)"></rect>
            <rect x="251" y="661" width="41" height="41" transform="rotate(0,271.5,681.5)"></rect>
            <rect x="251" y="743" width="41" height="41" transform="rotate(0,271.5,763.5)"></rect>
            <rect x="251" y="825" width="41" height="41" transform="rotate(0,271.5,845.5)"></rect>
            <rect x="292" y="456" width="41" height="41" transform="rotate(0,312.5,476.5)"></rect>
            <rect x="292" y="497" width="41" height="41" transform="rotate(0,312.5,517.5)"></rect>
            <rect x="292" y="579" width="41" height="41" transform="rotate(0,312.5,599.5)"></rect>
            <rect x="292" y="620" width="41" height="41" transform="rotate(0,312.5,640.5)"></rect>
            <rect x="292" y="661" width="41" height="41" transform="rotate(0,312.5,681.5)"></rect>
            <rect x="292" y="825" width="41" height="41" transform="rotate(0,312.5,845.5)"></rect>
            <rect x="333" y="87" width="41" height="41" transform="rotate(0,353.5,107.5)"></rect>
            <rect x="333" y="169" width="41" height="41" transform="rotate(0,353.5,189.5)"></rect>
            <rect x="333" y="210" width="41" height="41" transform="rotate(0,353.5,230.5)"></rect>
            <rect x="333" y="251" width="41" height="41" transform="rotate(0,353.5,271.5)"></rect>
            <rect x="333" y="333" width="41" height="41" transform="rotate(0,353.5,353.5)"></rect>
            <rect x="333" y="538" width="41" height="41" transform="rotate(0,353.5,558.5)"></rect>
            <rect x="333" y="579" width="41" height="41" transform="rotate(0,353.5,599.5)"></rect>
            <rect x="333" y="620" width="41" height="41" transform="rotate(0,353.5,640.5)"></rect>
            <rect x="333" y="661" width="41" height="41" transform="rotate(0,353.5,681.5)"></rect>
            <rect x="333" y="825" width="41" height="41" transform="rotate(0,353.5,845.5)"></rect>
            <rect x="333" y="866" width="41" height="41" transform="rotate(0,353.5,886.5)"></rect>
            <rect x="333" y="1030" width="41" height="41" transform="rotate(0,353.5,1050.5)"></rect>
            <rect x="333" y="1153" width="41" height="41" transform="rotate(0,353.5,1173.5)"></rect>
            <rect x="374" y="5" width="41" height="41" transform="rotate(0,394.5,25.5)"></rect>
            <rect x="374" y="87" width="41" height="41" transform="rotate(0,394.5,107.5)"></rect>
            <rect x="374" y="169" width="41" height="41" transform="rotate(0,394.5,189.5)"></rect>
            <rect x="374" y="210" width="41" height="41" transform="rotate(0,394.5,230.5)"></rect>
            <rect x="374" y="374" width="41" height="41" transform="rotate(0,394.5,394.5)"></rect>
            <rect x="374" y="415" width="41" height="41" transform="rotate(0,394.5,435.5)"></rect>
            <rect x="374" y="456" width="41" height="41" transform="rotate(0,394.5,476.5)"></rect>
            <rect x="374" y="497" width="41" height="41" transform="rotate(0,394.5,517.5)"></rect>
            <rect x="374" y="538" width="41" height="41" transform="rotate(0,394.5,558.5)"></rect>
            <rect x="374" y="661" width="41" height="41" transform="rotate(0,394.5,681.5)"></rect>
            <rect x="374" y="702" width="41" height="41" transform="rotate(0,394.5,722.5)"></rect>
            <rect x="374" y="784" width="41" height="41" transform="rotate(0,394.5,804.5)"></rect>
            <rect x="374" y="825" width="41" height="41" transform="rotate(0,394.5,845.5)"></rect>
            <rect x="374" y="866" width="41" height="41" transform="rotate(0,394.5,886.5)"></rect>
            <rect x="374" y="989" width="41" height="41" transform="rotate(0,394.5,1009.5)"></rect>
            <rect x="374" y="1071" width="41" height="41" transform="rotate(0,394.5,1091.5)"></rect>
            <rect x="374" y="1153" width="41" height="41" transform="rotate(0,394.5,1173.5)"></rect>
            <rect x="415" y="87" width="41" height="41" transform="rotate(0,435.5,107.5)"></rect>
            <rect x="415" y="169" width="41" height="41" transform="rotate(0,435.5,189.5)"></rect>
            <rect x="415" y="210" width="41" height="41" transform="rotate(0,435.5,230.5)"></rect>
            <rect x="415" y="251" width="41" height="41" transform="rotate(0,435.5,271.5)"></rect>
            <rect x="415" y="292" width="41" height="41" transform="rotate(0,435.5,312.5)"></rect>
            <rect x="415" y="333" width="41" height="41" transform="rotate(0,435.5,353.5)"></rect>
            <rect x="415" y="415" width="41" height="41" transform="rotate(0,435.5,435.5)"></rect>
            <rect x="415" y="456" width="41" height="41" transform="rotate(0,435.5,476.5)"></rect>
            <rect x="415" y="579" width="41" height="41" transform="rotate(0,435.5,599.5)"></rect>
            <rect x="415" y="620" width="41" height="41" transform="rotate(0,435.5,640.5)"></rect>
            <rect x="415" y="702" width="41" height="41" transform="rotate(0,435.5,722.5)"></rect>
            <rect x="415" y="784" width="41" height="41" transform="rotate(0,435.5,804.5)"></rect>
            <rect x="415" y="825" width="41" height="41" transform="rotate(0,435.5,845.5)"></rect>
            <rect x="415" y="1112" width="41" height="41" transform="rotate(0,435.5,1132.5)"></rect>
            <rect x="415" y="1153" width="41" height="41" transform="rotate(0,435.5,1173.5)"></rect>
            <rect x="456" y="128" width="41" height="41" transform="rotate(0,476.5,148.5)"></rect>
            <rect x="456" y="210" width="41" height="41" transform="rotate(0,476.5,230.5)"></rect>
            <rect x="456" y="374" width="41" height="41" transform="rotate(0,476.5,394.5)"></rect>
            <rect x="456" y="415" width="41" height="41" transform="rotate(0,476.5,435.5)"></rect>
            <rect x="456" y="456" width="41" height="41" transform="rotate(0,476.5,476.5)"></rect>
            <rect x="456" y="497" width="41" height="41" transform="rotate(0,476.5,517.5)"></rect>
            <rect x="456" y="620" width="41" height="41" transform="rotate(0,476.5,640.5)"></rect>
            <rect x="456" y="825" width="41" height="41" transform="rotate(0,476.5,845.5)"></rect>
            <rect x="456" y="866" width="41" height="41" transform="rotate(0,476.5,886.5)"></rect>
            <rect x="456" y="907" width="41" height="41" transform="rotate(0,476.5,927.5)"></rect>
            <rect x="456" y="989" width="41" height="41" transform="rotate(0,476.5,1009.5)"></rect>
            <rect x="456" y="1112" width="41" height="41" transform="rotate(0,476.5,1132.5)"></rect>
            <rect x="497" y="87" width="41" height="41" transform="rotate(0,517.5,107.5)"></rect>
            <rect x="497" y="128" width="41" height="41" transform="rotate(0,517.5,148.5)"></rect>
            <rect x="497" y="210" width="41" height="41" transform="rotate(0,517.5,230.5)"></rect>
            <rect x="497" y="251" width="41" height="41" transform="rotate(0,517.5,271.5)"></rect>
            <rect x="497" y="333" width="41" height="41" transform="rotate(0,517.5,353.5)"></rect>
            <rect x="497" y="415" width="41" height="41" transform="rotate(0,517.5,435.5)"></rect>
            <rect x="497" y="538" width="41" height="41" transform="rotate(0,517.5,558.5)"></rect>
            <rect x="497" y="579" width="41" height="41" transform="rotate(0,517.5,599.5)"></rect>
            <rect x="497" y="661" width="41" height="41" transform="rotate(0,517.5,681.5)"></rect>
            <rect x="497" y="743" width="41" height="41" transform="rotate(0,517.5,763.5)"></rect>
            <rect x="497" y="784" width="41" height="41" transform="rotate(0,517.5,804.5)"></rect>
            <rect x="497" y="825" width="41" height="41" transform="rotate(0,517.5,845.5)"></rect>
            <rect x="497" y="907" width="41" height="41" transform="rotate(0,517.5,927.5)"></rect>
            <rect x="497" y="948" width="41" height="41" transform="rotate(0,517.5,968.5)"></rect>
            <rect x="538" y="5" width="41" height="41" transform="rotate(0,558.5,25.5)"></rect>
            <rect x="538" y="46" width="41" height="41" transform="rotate(0,558.5,66.5)"></rect>
            <rect x="538" y="87" width="41" height="41" transform="rotate(0,558.5,107.5)"></rect>
            <rect x="538" y="128" width="41" height="41" transform="rotate(0,558.5,148.5)"></rect>
            <rect x="538" y="210" width="41" height="41" transform="rotate(0,558.5,230.5)"></rect>
            <rect x="538" y="292" width="41" height="41" transform="rotate(0,558.5,312.5)"></rect>
            <rect x="538" y="456" width="41" height="41" transform="rotate(0,558.5,476.5)"></rect>
            <rect x="538" y="497" width="41" height="41" transform="rotate(0,558.5,517.5)"></rect>
            <rect x="538" y="661" width="41" height="41" transform="rotate(0,558.5,681.5)"></rect>
            <rect x="538" y="702" width="41" height="41" transform="rotate(0,558.5,722.5)"></rect>
            <rect x="538" y="743" width="41" height="41" transform="rotate(0,558.5,763.5)"></rect>
            <rect x="538" y="825" width="41" height="41" transform="rotate(0,558.5,845.5)"></rect>
            <rect x="538" y="866" width="41" height="41" transform="rotate(0,558.5,886.5)"></rect>
            <rect x="538" y="907" width="41" height="41" transform="rotate(0,558.5,927.5)"></rect>
            <rect x="538" y="948" width="41" height="41" transform="rotate(0,558.5,968.5)"></rect>
            <rect x="538" y="1112" width="41" height="41" transform="rotate(0,558.5,1132.5)"></rect>
            <rect x="538" y="1153" width="41" height="41" transform="rotate(0,558.5,1173.5)"></rect>
            <rect x="579" y="251" width="41" height="41" transform="rotate(0,599.5,271.5)"></rect>
            <rect x="579" y="415" width="41" height="41" transform="rotate(0,599.5,435.5)"></rect>
            <rect x="579" y="497" width="41" height="41" transform="rotate(0,599.5,517.5)"></rect>
            <rect x="579" y="825" width="41" height="41" transform="rotate(0,599.5,845.5)"></rect>
            <rect x="579" y="907" width="41" height="41" transform="rotate(0,599.5,927.5)"></rect>
            <rect x="579" y="948" width="41" height="41" transform="rotate(0,599.5,968.5)"></rect>
            <rect x="579" y="1071" width="41" height="41" transform="rotate(0,599.5,1091.5)"></rect>
            <rect x="579" y="1112" width="41" height="41" transform="rotate(0,599.5,1132.5)"></rect>
            <rect x="579" y="1153" width="41" height="41" transform="rotate(0,599.5,1173.5)"></rect>
            <rect x="620" y="46" width="41" height="41" transform="rotate(0,640.5,66.5)"></rect>
            <rect x="620" y="128" width="41" height="41" transform="rotate(0,640.5,148.5)"></rect>
            <rect x="620" y="169" width="41" height="41" transform="rotate(0,640.5,189.5)"></rect>
            <rect x="620" y="210" width="41" height="41" transform="rotate(0,640.5,230.5)"></rect>
            <rect x="620" y="292" width="41" height="41" transform="rotate(0,640.5,312.5)"></rect>
            <rect x="620" y="333" width="41" height="41" transform="rotate(0,640.5,353.5)"></rect>
            <rect x="620" y="456" width="41" height="41" transform="rotate(0,640.5,476.5)"></rect>
            <rect x="620" y="579" width="41" height="41" transform="rotate(0,640.5,599.5)"></rect>
            <rect x="620" y="661" width="41" height="41" transform="rotate(0,640.5,681.5)"></rect>
            <rect x="620" y="702" width="41" height="41" transform="rotate(0,640.5,722.5)"></rect>
            <rect x="620" y="784" width="41" height="41" transform="rotate(0,640.5,804.5)"></rect>
            <rect x="620" y="948" width="41" height="41" transform="rotate(0,640.5,968.5)"></rect>
            <rect x="620" y="1112" width="41" height="41" transform="rotate(0,640.5,1132.5)"></rect>
            <rect x="620" y="1153" width="41" height="41" transform="rotate(0,640.5,1173.5)"></rect>
            <rect x="661" y="128" width="41" height="41" transform="rotate(0,681.5,148.5)"></rect>
            <rect x="661" y="169" width="41" height="41" transform="rotate(0,681.5,189.5)"></rect>
            <rect x="661" y="251" width="41" height="41" transform="rotate(0,681.5,271.5)"></rect>
            <rect x="661" y="333" width="41" height="41" transform="rotate(0,681.5,353.5)"></rect>
            <rect x="661" y="415" width="41" height="41" transform="rotate(0,681.5,435.5)"></rect>
            <rect x="661" y="497" width="41" height="41" transform="rotate(0,681.5,517.5)"></rect>
            <rect x="661" y="538" width="41" height="41" transform="rotate(0,681.5,558.5)"></rect>
            <rect x="661" y="661" width="41" height="41" transform="rotate(0,681.5,681.5)"></rect>
            <rect x="661" y="743" width="41" height="41" transform="rotate(0,681.5,763.5)"></rect>
            <rect x="661" y="907" width="41" height="41" transform="rotate(0,681.5,927.5)"></rect>
            <rect x="661" y="948" width="41" height="41" transform="rotate(0,681.5,968.5)"></rect>
            <rect x="661" y="989" width="41" height="41" transform="rotate(0,681.5,1009.5)"></rect>
            <rect x="661" y="1030" width="41" height="41" transform="rotate(0,681.5,1050.5)"></rect>
            <rect x="661" y="1112" width="41" height="41" transform="rotate(0,681.5,1132.5)"></rect>
            <rect x="702" y="46" width="41" height="41" transform="rotate(0,722.5,66.5)"></rect>
            <rect x="702" y="87" width="41" height="41" transform="rotate(0,722.5,107.5)"></rect>
            <rect x="702" y="128" width="41" height="41" transform="rotate(0,722.5,148.5)"></rect>
            <rect x="702" y="415" width="41" height="41" transform="rotate(0,722.5,435.5)"></rect>
            <rect x="702" y="456" width="41" height="41" transform="rotate(0,722.5,476.5)"></rect>
            <rect x="702" y="497" width="41" height="41" transform="rotate(0,722.5,517.5)"></rect>
            <rect x="702" y="661" width="41" height="41" transform="rotate(0,722.5,681.5)"></rect>
            <rect x="702" y="784" width="41" height="41" transform="rotate(0,722.5,804.5)"></rect>
            <rect x="702" y="948" width="41" height="41" transform="rotate(0,722.5,968.5)"></rect>
            <rect x="702" y="1071" width="41" height="41" transform="rotate(0,722.5,1091.5)"></rect>
            <rect x="702" y="1112" width="41" height="41" transform="rotate(0,722.5,1132.5)"></rect>
            <rect x="702" y="1153" width="41" height="41" transform="rotate(0,722.5,1173.5)"></rect>
            <rect x="743" y="5" width="41" height="41" transform="rotate(0,763.5,25.5)"></rect>
            <rect x="743" y="169" width="41" height="41" transform="rotate(0,763.5,189.5)"></rect>
            <rect x="743" y="210" width="41" height="41" transform="rotate(0,763.5,230.5)"></rect>
            <rect x="743" y="251" width="41" height="41" transform="rotate(0,763.5,271.5)"></rect>
            <rect x="743" y="292" width="41" height="41" transform="rotate(0,763.5,312.5)"></rect>
            <rect x="743" y="415" width="41" height="41" transform="rotate(0,763.5,435.5)"></rect>
            <rect x="743" y="456" width="41" height="41" transform="rotate(0,763.5,476.5)"></rect>
            <rect x="743" y="620" width="41" height="41" transform="rotate(0,763.5,640.5)"></rect>
            <rect x="743" y="743" width="41" height="41" transform="rotate(0,763.5,763.5)"></rect>
            <rect x="743" y="866" width="41" height="41" transform="rotate(0,763.5,886.5)"></rect>
            <rect x="743" y="948" width="41" height="41" transform="rotate(0,763.5,968.5)"></rect>
            <rect x="743" y="989" width="41" height="41" transform="rotate(0,763.5,1009.5)"></rect>
            <rect x="743" y="1071" width="41" height="41" transform="rotate(0,763.5,1091.5)"></rect>
            <rect x="743" y="1112" width="41" height="41" transform="rotate(0,763.5,1132.5)"></rect>
            <rect x="743" y="1153" width="41" height="41" transform="rotate(0,763.5,1173.5)"></rect>
            <rect x="784" y="46" width="41" height="41" transform="rotate(0,804.5,66.5)"></rect>
            <rect x="784" y="169" width="41" height="41" transform="rotate(0,804.5,189.5)"></rect>
            <rect x="784" y="210" width="41" height="41" transform="rotate(0,804.5,230.5)"></rect>
            <rect x="784" y="333" width="41" height="41" transform="rotate(0,804.5,353.5)"></rect>
            <rect x="784" y="374" width="41" height="41" transform="rotate(0,804.5,394.5)"></rect>
            <rect x="784" y="456" width="41" height="41" transform="rotate(0,804.5,476.5)"></rect>
            <rect x="784" y="661" width="41" height="41" transform="rotate(0,804.5,681.5)"></rect>
            <rect x="784" y="784" width="41" height="41" transform="rotate(0,804.5,804.5)"></rect>
            <rect x="784" y="907" width="41" height="41" transform="rotate(0,804.5,927.5)"></rect>
            <rect x="784" y="948" width="41" height="41" transform="rotate(0,804.5,968.5)"></rect>
            <rect x="784" y="1030" width="41" height="41" transform="rotate(0,804.5,1050.5)"></rect>
            <rect x="784" y="1153" width="41" height="41" transform="rotate(0,804.5,1173.5)"></rect>
            <rect x="825" y="5" width="41" height="41" transform="rotate(0,845.5,25.5)"></rect>
            <rect x="825" y="87" width="41" height="41" transform="rotate(0,845.5,107.5)"></rect>
            <rect x="825" y="210" width="41" height="41" transform="rotate(0,845.5,230.5)"></rect>
            <rect x="825" y="251" width="41" height="41" transform="rotate(0,845.5,271.5)"></rect>
            <rect x="825" y="292" width="41" height="41" transform="rotate(0,845.5,312.5)"></rect>
            <rect x="825" y="333" width="41" height="41" transform="rotate(0,845.5,353.5)"></rect>
            <rect x="825" y="456" width="41" height="41" transform="rotate(0,845.5,476.5)"></rect>
            <rect x="825" y="620" width="41" height="41" transform="rotate(0,845.5,640.5)"></rect>
            <rect x="825" y="661" width="41" height="41" transform="rotate(0,845.5,681.5)"></rect>
            <rect x="825" y="702" width="41" height="41" transform="rotate(0,845.5,722.5)"></rect>
            <rect x="825" y="743" width="41" height="41" transform="rotate(0,845.5,763.5)"></rect>
            <rect x="825" y="825" width="41" height="41" transform="rotate(0,845.5,845.5)"></rect>
            <rect x="825" y="866" width="41" height="41" transform="rotate(0,845.5,886.5)"></rect>
            <rect x="825" y="907" width="41" height="41" transform="rotate(0,845.5,927.5)"></rect>
            <rect x="825" y="948" width="41" height="41" transform="rotate(0,845.5,968.5)"></rect>
            <rect x="825" y="989" width="41" height="41" transform="rotate(0,845.5,1009.5)"></rect>
            <rect x="825" y="1071" width="41" height="41" transform="rotate(0,845.5,1091.5)"></rect>
            <rect x="825" y="1112" width="41" height="41" transform="rotate(0,845.5,1132.5)"></rect>
            <rect x="866" y="333" width="41" height="41" transform="rotate(0,886.5,353.5)"></rect>
            <rect x="866" y="538" width="41" height="41" transform="rotate(0,886.5,558.5)"></rect>
            <rect x="866" y="579" width="41" height="41" transform="rotate(0,886.5,599.5)"></rect>
            <rect x="866" y="620" width="41" height="41" transform="rotate(0,886.5,640.5)"></rect>
            <rect x="866" y="661" width="41" height="41" transform="rotate(0,886.5,681.5)"></rect>
            <rect x="866" y="825" width="41" height="41" transform="rotate(0,886.5,845.5)"></rect>
            <rect x="866" y="989" width="41" height="41" transform="rotate(0,886.5,1009.5)"></rect>
            <rect x="866" y="1112" width="41" height="41" transform="rotate(0,886.5,1132.5)"></rect>
            <rect x="866" y="1153" width="41" height="41" transform="rotate(0,886.5,1173.5)"></rect>
            <rect x="907" y="415" width="41" height="41" transform="rotate(0,927.5,435.5)"></rect>
            <rect x="907" y="497" width="41" height="41" transform="rotate(0,927.5,517.5)"></rect>
            <rect x="907" y="579" width="41" height="41" transform="rotate(0,927.5,599.5)"></rect>
            <rect x="907" y="661" width="41" height="41" transform="rotate(0,927.5,681.5)"></rect>
            <rect x="907" y="702" width="41" height="41" transform="rotate(0,927.5,722.5)"></rect>
            <rect x="907" y="743" width="41" height="41" transform="rotate(0,927.5,763.5)"></rect>
            <rect x="907" y="784" width="41" height="41" transform="rotate(0,927.5,804.5)"></rect>
            <rect x="907" y="825" width="41" height="41" transform="rotate(0,927.5,845.5)"></rect>
            <rect x="907" y="907" width="41" height="41" transform="rotate(0,927.5,927.5)"></rect>
            <rect x="907" y="989" width="41" height="41" transform="rotate(0,927.5,1009.5)"></rect>
            <rect x="907" y="1071" width="41" height="41" transform="rotate(0,927.5,1091.5)"></rect>
            <rect x="907" y="1153" width="41" height="41" transform="rotate(0,927.5,1173.5)"></rect>
            <rect x="948" y="333" width="41" height="41" transform="rotate(0,968.5,353.5)"></rect>
            <rect x="948" y="374" width="41" height="41" transform="rotate(0,968.5,394.5)"></rect>
            <rect x="948" y="415" width="41" height="41" transform="rotate(0,968.5,435.5)"></rect>
            <rect x="948" y="497" width="41" height="41" transform="rotate(0,968.5,517.5)"></rect>
            <rect x="948" y="661" width="41" height="41" transform="rotate(0,968.5,681.5)"></rect>
            <rect x="948" y="825" width="41" height="41" transform="rotate(0,968.5,845.5)"></rect>
            <rect x="948" y="989" width="41" height="41" transform="rotate(0,968.5,1009.5)"></rect>
            <rect x="948" y="1153" width="41" height="41" transform="rotate(0,968.5,1173.5)"></rect>
            <rect x="989" y="333" width="41" height="41" transform="rotate(0,1009.5,353.5)"></rect>
            <rect x="989" y="456" width="41" height="41" transform="rotate(0,1009.5,476.5)"></rect>
            <rect x="989" y="497" width="41" height="41" transform="rotate(0,1009.5,517.5)"></rect>
            <rect x="989" y="538" width="41" height="41" transform="rotate(0,1009.5,558.5)"></rect>
            <rect x="989" y="702" width="41" height="41" transform="rotate(0,1009.5,722.5)"></rect>
            <rect x="989" y="825" width="41" height="41" transform="rotate(0,1009.5,845.5)"></rect>
            <rect x="989" y="866" width="41" height="41" transform="rotate(0,1009.5,886.5)"></rect>
            <rect x="989" y="907" width="41" height="41" transform="rotate(0,1009.5,927.5)"></rect>
            <rect x="989" y="948" width="41" height="41" transform="rotate(0,1009.5,968.5)"></rect>
            <rect x="989" y="989" width="41" height="41" transform="rotate(0,1009.5,1009.5)"></rect>
            <rect x="989" y="1030" width="41" height="41" transform="rotate(0,1009.5,1050.5)"></rect>
            <rect x="989" y="1112" width="41" height="41" transform="rotate(0,1009.5,1132.5)"></rect>
            <rect x="989" y="1153" width="41" height="41" transform="rotate(0,1009.5,1173.5)"></rect>
            <rect x="1030" y="374" width="41" height="41" transform="rotate(0,1050.5,394.5)"></rect>
            <rect x="1030" y="456" width="41" height="41" transform="rotate(0,1050.5,476.5)"></rect>
            <rect x="1030" y="497" width="41" height="41" transform="rotate(0,1050.5,517.5)"></rect>
            <rect x="1030" y="579" width="41" height="41" transform="rotate(0,1050.5,599.5)"></rect>
            <rect x="1030" y="620" width="41" height="41" transform="rotate(0,1050.5,640.5)"></rect>
            <rect x="1030" y="661" width="41" height="41" transform="rotate(0,1050.5,681.5)"></rect>
            <rect x="1030" y="702" width="41" height="41" transform="rotate(0,1050.5,722.5)"></rect>
            <rect x="1030" y="743" width="41" height="41" transform="rotate(0,1050.5,763.5)"></rect>
            <rect x="1030" y="825" width="41" height="41" transform="rotate(0,1050.5,845.5)"></rect>
            <rect x="1030" y="866" width="41" height="41" transform="rotate(0,1050.5,886.5)"></rect>
            <rect x="1030" y="989" width="41" height="41" transform="rotate(0,1050.5,1009.5)"></rect>
            <rect x="1030" y="1071" width="41" height="41" transform="rotate(0,1050.5,1091.5)"></rect>
            <rect x="1030" y="1112" width="41" height="41" transform="rotate(0,1050.5,1132.5)"></rect>
            <rect x="1071" y="333" width="41" height="41" transform="rotate(0,1091.5,353.5)"></rect>
            <rect x="1071" y="374" width="41" height="41" transform="rotate(0,1091.5,394.5)"></rect>
            <rect x="1071" y="538" width="41" height="41" transform="rotate(0,1091.5,558.5)"></rect>
            <rect x="1071" y="620" width="41" height="41" transform="rotate(0,1091.5,640.5)"></rect>
            <rect x="1071" y="702" width="41" height="41" transform="rotate(0,1091.5,722.5)"></rect>
            <rect x="1071" y="784" width="41" height="41" transform="rotate(0,1091.5,804.5)"></rect>
            <rect x="1071" y="948" width="41" height="41" transform="rotate(0,1091.5,968.5)"></rect>
            <rect x="1071" y="989" width="41" height="41" transform="rotate(0,1091.5,1009.5)"></rect>
            <rect x="1071" y="1153" width="41" height="41" transform="rotate(0,1091.5,1173.5)"></rect>
            <rect x="1112" y="415" width="41" height="41" transform="rotate(0,1132.5,435.5)"></rect>
            <rect x="1112" y="538" width="41" height="41" transform="rotate(0,1132.5,558.5)"></rect>
            <rect x="1112" y="743" width="41" height="41" transform="rotate(0,1132.5,763.5)"></rect>
            <rect x="1112" y="784" width="41" height="41" transform="rotate(0,1132.5,804.5)"></rect>
            <rect x="1112" y="907" width="41" height="41" transform="rotate(0,1132.5,927.5)"></rect>
            <rect x="1112" y="948" width="41" height="41" transform="rotate(0,1132.5,968.5)"></rect>
            <rect x="1112" y="1071" width="41" height="41" transform="rotate(0,1132.5,1091.5)"></rect>
            <rect x="1112" y="1112" width="41" height="41" transform="rotate(0,1132.5,1132.5)"></rect>
            <rect x="1153" y="415" width="41" height="41" transform="rotate(0,1173.5,435.5)"></rect>
            <rect x="1153" y="497" width="41" height="41" transform="rotate(0,1173.5,517.5)"></rect>
            <rect x="1153" y="620" width="41" height="41" transform="rotate(0,1173.5,640.5)"></rect>
            <rect x="1153" y="661" width="41" height="41" transform="rotate(0,1173.5,681.5)"></rect>
            <rect x="1153" y="784" width="41" height="41" transform="rotate(0,1173.5,804.5)"></rect>
            <rect x="1153" y="989" width="41" height="41" transform="rotate(0,1173.5,1009.5)"></rect>
            <rect x="1153" y="1071" width="41" height="41" transform="rotate(0,1173.5,1091.5)"></rect>
            <rect x="1153" y="1112" width="41" height="41" transform="rotate(0,1173.5,1132.5)"></rect>
            <rect x="1153" y="1153" width="41" height="41" transform="rotate(0,1173.5,1173.5)"></rect>
        </clipPath>
        <clipPath id="clip-path-corners-square-color-0-0">
            <path clip-rule="evenodd"
                d="M 5 107.5v 82a 102.5 102.5, 0, 0, 0, 102.5 102.5h 82a 102.5 102.5, 0, 0, 0, 102.5 -102.5v -82a 102.5 102.5, 0, 0, 0, -102.5 -102.5h -82a 102.5 102.5, 0, 0, 0, -102.5 102.5M 107.5 46h 82a 61.5 61.5, 0, 0, 1, 61.5 61.5v 82a 61.5 61.5, 0, 0, 1, -61.5 61.5h -82a 61.5 61.5, 0, 0, 1, -61.5 -61.5v -82a 61.5 61.5, 0, 0, 1, 61.5 -61.5"
                transform="rotate(0,148.5,148.5)"></path>
            <rect x="87" y="87" width="123" height="123" transform="rotate(0,148.5,148.5)"></rect>
        </clipPath>
        <clipPath id="clip-path-corners-square-color-1-0">
            <path clip-rule="evenodd"
                d="M 907 107.5v 82a 102.5 102.5, 0, 0, 0, 102.5 102.5h 82a 102.5 102.5, 0, 0, 0, 102.5 -102.5v -82a 102.5 102.5, 0, 0, 0, -102.5 -102.5h -82a 102.5 102.5, 0, 0, 0, -102.5 102.5M 1009.5 46h 82a 61.5 61.5, 0, 0, 1, 61.5 61.5v 82a 61.5 61.5, 0, 0, 1, -61.5 61.5h -82a 61.5 61.5, 0, 0, 1, -61.5 -61.5v -82a 61.5 61.5, 0, 0, 1, 61.5 -61.5"
                transform="rotate(90,1050.5,148.5)"></path>
            <rect x="989" y="87" width="123" height="123" transform="rotate(90,1050.5,148.5)"></rect>
        </clipPath>
        <clipPath id="clip-path-corners-square-color-0-1">
            <path clip-rule="evenodd"
                d="M 5 1009.5v 82a 102.5 102.5, 0, 0, 0, 102.5 102.5h 82a 102.5 102.5, 0, 0, 0, 102.5 -102.5v -82a 102.5 102.5, 0, 0, 0, -102.5 -102.5h -82a 102.5 102.5, 0, 0, 0, -102.5 102.5M 107.5 948h 82a 61.5 61.5, 0, 0, 1, 61.5 61.5v 82a 61.5 61.5, 0, 0, 1, -61.5 61.5h -82a 61.5 61.5, 0, 0, 1, -61.5 -61.5v -82a 61.5 61.5, 0, 0, 1, 61.5 -61.5"
                transform="rotate(-90,148.5,1050.5)"></path>
            <rect x="87" y="989" width="123" height="123" transform="rotate(-90,148.5,1050.5)"></rect>
        </clipPath>
    </defs>
    <rect x="0" y="0" height="1200" width="1200" clip-path="url('#clip-path-background-color')" fill="#ffffff"></rect>
    <rect x="0" y="0" height="1200" width="1200" clip-path="url('#clip-path-dot-color')" fill="#393a3c"></rect>
    <rect x="5" y="5" height="287" width="287" clip-path="url('#clip-path-corners-square-color-0-0')" fill="#404b96">
    </rect>
    <rect x="907" y="5" height="287" width="287" clip-path="url('#clip-path-corners-square-color-1-0')" fill="#404b96">
    </rect>
    <rect x="5" y="907" height="287" width="287" clip-path="url('#clip-path-corners-square-color-0-1')" fill="#404b96">
    </rect>
</svg>