<svg xmlns="http://www.w3.org/2000/svg" width="1200" height="1200">
    <defs>
        <clipPath id="clip-path-dot-color">
            <rect x="6" y="330" width="36" height="36" transform="rotate(0,24,348)"></rect>
            <rect x="6" y="402" width="36" height="36" transform="rotate(0,24,420)"></rect>
            <rect x="6" y="474" width="36" height="36" transform="rotate(0,24,492)"></rect>
            <rect x="6" y="582" width="36" height="36" transform="rotate(0,24,600)"></rect>
            <rect x="6" y="618" width="36" height="36" transform="rotate(0,24,636)"></rect>
            <rect x="6" y="690" width="36" height="36" transform="rotate(0,24,708)"></rect>
            <rect x="6" y="726" width="36" height="36" transform="rotate(0,24,744)"></rect>
            <rect x="6" y="762" width="36" height="36" transform="rotate(0,24,780)"></rect>
            <rect x="6" y="798" width="36" height="36" transform="rotate(0,24,816)"></rect>
            <rect x="6" y="870" width="36" height="36" transform="rotate(0,24,888)"></rect>
            <rect x="42" y="366" width="36" height="36" transform="rotate(0,60,384)"></rect>
            <rect x="42" y="402" width="36" height="36" transform="rotate(0,60,420)"></rect>
            <rect x="42" y="510" width="36" height="36" transform="rotate(0,60,528)"></rect>
            <rect x="42" y="546" width="36" height="36" transform="rotate(0,60,564)"></rect>
            <rect x="42" y="582" width="36" height="36" transform="rotate(0,60,600)"></rect>
            <rect x="42" y="618" width="36" height="36" transform="rotate(0,60,636)"></rect>
            <rect x="42" y="726" width="36" height="36" transform="rotate(0,60,744)"></rect>
            <rect x="42" y="762" width="36" height="36" transform="rotate(0,60,780)"></rect>
            <rect x="42" y="798" width="36" height="36" transform="rotate(0,60,816)"></rect>
            <rect x="42" y="870" width="36" height="36" transform="rotate(0,60,888)"></rect>
            <rect x="78" y="294" width="36" height="36" transform="rotate(0,96,312)"></rect>
            <rect x="78" y="330" width="36" height="36" transform="rotate(0,96,348)"></rect>
            <rect x="78" y="366" width="36" height="36" transform="rotate(0,96,384)"></rect>
            <rect x="78" y="402" width="36" height="36" transform="rotate(0,96,420)"></rect>
            <rect x="78" y="438" width="36" height="36" transform="rotate(0,96,456)"></rect>
            <rect x="78" y="510" width="36" height="36" transform="rotate(0,96,528)"></rect>
            <rect x="78" y="546" width="36" height="36" transform="rotate(0,96,564)"></rect>
            <rect x="78" y="690" width="36" height="36" transform="rotate(0,96,708)"></rect>
            <rect x="78" y="762" width="36" height="36" transform="rotate(0,96,780)"></rect>
            <rect x="78" y="798" width="36" height="36" transform="rotate(0,96,816)"></rect>
            <rect x="78" y="834" width="36" height="36" transform="rotate(0,96,852)"></rect>
            <rect x="78" y="870" width="36" height="36" transform="rotate(0,96,888)"></rect>
            <rect x="114" y="294" width="36" height="36" transform="rotate(0,132,312)"></rect>
            <rect x="114" y="510" width="36" height="36" transform="rotate(0,132,528)"></rect>
            <rect x="114" y="546" width="36" height="36" transform="rotate(0,132,564)"></rect>
            <rect x="114" y="582" width="36" height="36" transform="rotate(0,132,600)"></rect>
            <rect x="114" y="618" width="36" height="36" transform="rotate(0,132,636)"></rect>
            <rect x="114" y="654" width="36" height="36" transform="rotate(0,132,672)"></rect>
            <rect x="114" y="726" width="36" height="36" transform="rotate(0,132,744)"></rect>
            <rect x="114" y="762" width="36" height="36" transform="rotate(0,132,780)"></rect>
            <rect x="114" y="834" width="36" height="36" transform="rotate(0,132,852)"></rect>
            <rect x="114" y="870" width="36" height="36" transform="rotate(0,132,888)"></rect>
            <rect x="150" y="330" width="36" height="36" transform="rotate(0,168,348)"></rect>
            <rect x="150" y="438" width="36" height="36" transform="rotate(0,168,456)"></rect>
            <rect x="150" y="474" width="36" height="36" transform="rotate(0,168,492)"></rect>
            <rect x="150" y="546" width="36" height="36" transform="rotate(0,168,564)"></rect>
            <rect x="150" y="582" width="36" height="36" transform="rotate(0,168,600)"></rect>
            <rect x="150" y="654" width="36" height="36" transform="rotate(0,168,672)"></rect>
            <rect x="150" y="690" width="36" height="36" transform="rotate(0,168,708)"></rect>
            <rect x="150" y="726" width="36" height="36" transform="rotate(0,168,744)"></rect>
            <rect x="150" y="762" width="36" height="36" transform="rotate(0,168,780)"></rect>
            <rect x="150" y="798" width="36" height="36" transform="rotate(0,168,816)"></rect>
            <rect x="150" y="834" width="36" height="36" transform="rotate(0,168,852)"></rect>
            <rect x="186" y="330" width="36" height="36" transform="rotate(0,204,348)"></rect>
            <rect x="186" y="366" width="36" height="36" transform="rotate(0,204,384)"></rect>
            <rect x="186" y="474" width="36" height="36" transform="rotate(0,204,492)"></rect>
            <rect x="186" y="510" width="36" height="36" transform="rotate(0,204,528)"></rect>
            <rect x="186" y="546" width="36" height="36" transform="rotate(0,204,564)"></rect>
            <rect x="186" y="582" width="36" height="36" transform="rotate(0,204,600)"></rect>
            <rect x="186" y="690" width="36" height="36" transform="rotate(0,204,708)"></rect>
            <rect x="186" y="726" width="36" height="36" transform="rotate(0,204,744)"></rect>
            <rect x="186" y="762" width="36" height="36" transform="rotate(0,204,780)"></rect>
            <rect x="186" y="798" width="36" height="36" transform="rotate(0,204,816)"></rect>
            <rect x="186" y="870" width="36" height="36" transform="rotate(0,204,888)"></rect>
            <rect x="222" y="294" width="36" height="36" transform="rotate(0,240,312)"></rect>
            <rect x="222" y="366" width="36" height="36" transform="rotate(0,240,384)"></rect>
            <rect x="222" y="438" width="36" height="36" transform="rotate(0,240,456)"></rect>
            <rect x="222" y="510" width="36" height="36" transform="rotate(0,240,528)"></rect>
            <rect x="222" y="582" width="36" height="36" transform="rotate(0,240,600)"></rect>
            <rect x="222" y="654" width="36" height="36" transform="rotate(0,240,672)"></rect>
            <rect x="222" y="726" width="36" height="36" transform="rotate(0,240,744)"></rect>
            <rect x="222" y="798" width="36" height="36" transform="rotate(0,240,816)"></rect>
            <rect x="222" y="870" width="36" height="36" transform="rotate(0,240,888)"></rect>
            <rect x="258" y="330" width="36" height="36" transform="rotate(0,276,348)"></rect>
            <rect x="258" y="366" width="36" height="36" transform="rotate(0,276,384)"></rect>
            <rect x="258" y="474" width="36" height="36" transform="rotate(0,276,492)"></rect>
            <rect x="258" y="510" width="36" height="36" transform="rotate(0,276,528)"></rect>
            <rect x="258" y="654" width="36" height="36" transform="rotate(0,276,672)"></rect>
            <rect x="258" y="798" width="36" height="36" transform="rotate(0,276,816)"></rect>
            <rect x="258" y="834" width="36" height="36" transform="rotate(0,276,852)"></rect>
            <rect x="294" y="114" width="36" height="36" transform="rotate(0,312,132)"></rect>
            <rect x="294" y="150" width="36" height="36" transform="rotate(0,312,168)"></rect>
            <rect x="294" y="222" width="36" height="36" transform="rotate(0,312,240)"></rect>
            <rect x="294" y="258" width="36" height="36" transform="rotate(0,312,276)"></rect>
            <rect x="294" y="330" width="36" height="36" transform="rotate(0,312,348)"></rect>
            <rect x="294" y="402" width="36" height="36" transform="rotate(0,312,420)"></rect>
            <rect x="294" y="438" width="36" height="36" transform="rotate(0,312,456)"></rect>
            <rect x="294" y="510" width="36" height="36" transform="rotate(0,312,528)"></rect>
            <rect x="294" y="618" width="36" height="36" transform="rotate(0,312,636)"></rect>
            <rect x="294" y="690" width="36" height="36" transform="rotate(0,312,708)"></rect>
            <rect x="294" y="798" width="36" height="36" transform="rotate(0,312,816)"></rect>
            <rect x="294" y="834" width="36" height="36" transform="rotate(0,312,852)"></rect>
            <rect x="294" y="1050" width="36" height="36" transform="rotate(0,312,1068)"></rect>
            <rect x="294" y="1086" width="36" height="36" transform="rotate(0,312,1104)"></rect>
            <rect x="330" y="6" width="36" height="36" transform="rotate(0,348,24)"></rect>
            <rect x="330" y="42" width="36" height="36" transform="rotate(0,348,60)"></rect>
            <rect x="330" y="114" width="36" height="36" transform="rotate(0,348,132)"></rect>
            <rect x="330" y="186" width="36" height="36" transform="rotate(0,348,204)"></rect>
            <rect x="330" y="294" width="36" height="36" transform="rotate(0,348,312)"></rect>
            <rect x="330" y="330" width="36" height="36" transform="rotate(0,348,348)"></rect>
            <rect x="330" y="438" width="36" height="36" transform="rotate(0,348,456)"></rect>
            <rect x="330" y="582" width="36" height="36" transform="rotate(0,348,600)"></rect>
            <rect x="330" y="654" width="36" height="36" transform="rotate(0,348,672)"></rect>
            <rect x="330" y="690" width="36" height="36" transform="rotate(0,348,708)"></rect>
            <rect x="330" y="798" width="36" height="36" transform="rotate(0,348,816)"></rect>
            <rect x="330" y="834" width="36" height="36" transform="rotate(0,348,852)"></rect>
            <rect x="330" y="906" width="36" height="36" transform="rotate(0,348,924)"></rect>
            <rect x="330" y="978" width="36" height="36" transform="rotate(0,348,996)"></rect>
            <rect x="330" y="1014" width="36" height="36" transform="rotate(0,348,1032)"></rect>
            <rect x="330" y="1122" width="36" height="36" transform="rotate(0,348,1140)"></rect>
            <rect x="366" y="42" width="36" height="36" transform="rotate(0,384,60)"></rect>
            <rect x="366" y="114" width="36" height="36" transform="rotate(0,384,132)"></rect>
            <rect x="366" y="150" width="36" height="36" transform="rotate(0,384,168)"></rect>
            <rect x="366" y="222" width="36" height="36" transform="rotate(0,384,240)"></rect>
            <rect x="366" y="294" width="36" height="36" transform="rotate(0,384,312)"></rect>
            <rect x="366" y="330" width="36" height="36" transform="rotate(0,384,348)"></rect>
            <rect x="366" y="402" width="36" height="36" transform="rotate(0,384,420)"></rect>
            <rect x="366" y="474" width="36" height="36" transform="rotate(0,384,492)"></rect>
            <rect x="366" y="510" width="36" height="36" transform="rotate(0,384,528)"></rect>
            <rect x="366" y="546" width="36" height="36" transform="rotate(0,384,564)"></rect>
            <rect x="366" y="582" width="36" height="36" transform="rotate(0,384,600)"></rect>
            <rect x="366" y="690" width="36" height="36" transform="rotate(0,384,708)"></rect>
            <rect x="366" y="726" width="36" height="36" transform="rotate(0,384,744)"></rect>
            <rect x="366" y="762" width="36" height="36" transform="rotate(0,384,780)"></rect>
            <rect x="366" y="834" width="36" height="36" transform="rotate(0,384,852)"></rect>
            <rect x="366" y="870" width="36" height="36" transform="rotate(0,384,888)"></rect>
            <rect x="366" y="906" width="36" height="36" transform="rotate(0,384,924)"></rect>
            <rect x="366" y="978" width="36" height="36" transform="rotate(0,384,996)"></rect>
            <rect x="366" y="1050" width="36" height="36" transform="rotate(0,384,1068)"></rect>
            <rect x="366" y="1086" width="36" height="36" transform="rotate(0,384,1104)"></rect>
            <rect x="366" y="1122" width="36" height="36" transform="rotate(0,384,1140)"></rect>
            <rect x="366" y="1158" width="36" height="36" transform="rotate(0,384,1176)"></rect>
            <rect x="402" y="6" width="36" height="36" transform="rotate(0,420,24)"></rect>
            <rect x="402" y="42" width="36" height="36" transform="rotate(0,420,60)"></rect>
            <rect x="402" y="78" width="36" height="36" transform="rotate(0,420,96)"></rect>
            <rect x="402" y="114" width="36" height="36" transform="rotate(0,420,132)"></rect>
            <rect x="402" y="150" width="36" height="36" transform="rotate(0,420,168)"></rect>
            <rect x="402" y="330" width="36" height="36" transform="rotate(0,420,348)"></rect>
            <rect x="402" y="474" width="36" height="36" transform="rotate(0,420,492)"></rect>
            <rect x="402" y="546" width="36" height="36" transform="rotate(0,420,564)"></rect>
            <rect x="402" y="654" width="36" height="36" transform="rotate(0,420,672)"></rect>
            <rect x="402" y="690" width="36" height="36" transform="rotate(0,420,708)"></rect>
            <rect x="402" y="870" width="36" height="36" transform="rotate(0,420,888)"></rect>
            <rect x="402" y="942" width="36" height="36" transform="rotate(0,420,960)"></rect>
            <rect x="402" y="978" width="36" height="36" transform="rotate(0,420,996)"></rect>
            <rect x="402" y="1014" width="36" height="36" transform="rotate(0,420,1032)"></rect>
            <rect x="402" y="1086" width="36" height="36" transform="rotate(0,420,1104)"></rect>
            <rect x="402" y="1122" width="36" height="36" transform="rotate(0,420,1140)"></rect>
            <rect x="402" y="1158" width="36" height="36" transform="rotate(0,420,1176)"></rect>
            <rect x="438" y="6" width="36" height="36" transform="rotate(0,456,24)"></rect>
            <rect x="438" y="42" width="36" height="36" transform="rotate(0,456,60)"></rect>
            <rect x="438" y="114" width="36" height="36" transform="rotate(0,456,132)"></rect>
            <rect x="438" y="222" width="36" height="36" transform="rotate(0,456,240)"></rect>
            <rect x="438" y="294" width="36" height="36" transform="rotate(0,456,312)"></rect>
            <rect x="438" y="366" width="36" height="36" transform="rotate(0,456,384)"></rect>
            <rect x="438" y="438" width="36" height="36" transform="rotate(0,456,456)"></rect>
            <rect x="438" y="474" width="36" height="36" transform="rotate(0,456,492)"></rect>
            <rect x="438" y="510" width="36" height="36" transform="rotate(0,456,528)"></rect>
            <rect x="438" y="618" width="36" height="36" transform="rotate(0,456,636)"></rect>
            <rect x="438" y="654" width="36" height="36" transform="rotate(0,456,672)"></rect>
            <rect x="438" y="726" width="36" height="36" transform="rotate(0,456,744)"></rect>
            <rect x="438" y="762" width="36" height="36" transform="rotate(0,456,780)"></rect>
            <rect x="438" y="798" width="36" height="36" transform="rotate(0,456,816)"></rect>
            <rect x="438" y="834" width="36" height="36" transform="rotate(0,456,852)"></rect>
            <rect x="438" y="870" width="36" height="36" transform="rotate(0,456,888)"></rect>
            <rect x="438" y="942" width="36" height="36" transform="rotate(0,456,960)"></rect>
            <rect x="438" y="1014" width="36" height="36" transform="rotate(0,456,1032)"></rect>
            <rect x="438" y="1050" width="36" height="36" transform="rotate(0,456,1068)"></rect>
            <rect x="438" y="1158" width="36" height="36" transform="rotate(0,456,1176)"></rect>
            <rect x="474" y="78" width="36" height="36" transform="rotate(0,492,96)"></rect>
            <rect x="474" y="150" width="36" height="36" transform="rotate(0,492,168)"></rect>
            <rect x="474" y="258" width="36" height="36" transform="rotate(0,492,276)"></rect>
            <rect x="474" y="330" width="36" height="36" transform="rotate(0,492,348)"></rect>
            <rect x="474" y="366" width="36" height="36" transform="rotate(0,492,384)"></rect>
            <rect x="474" y="438" width="36" height="36" transform="rotate(0,492,456)"></rect>
            <rect x="474" y="474" width="36" height="36" transform="rotate(0,492,492)"></rect>
            <rect x="474" y="582" width="36" height="36" transform="rotate(0,492,600)"></rect>
            <rect x="474" y="654" width="36" height="36" transform="rotate(0,492,672)"></rect>
            <rect x="474" y="690" width="36" height="36" transform="rotate(0,492,708)"></rect>
            <rect x="474" y="762" width="36" height="36" transform="rotate(0,492,780)"></rect>
            <rect x="474" y="798" width="36" height="36" transform="rotate(0,492,816)"></rect>
            <rect x="474" y="834" width="36" height="36" transform="rotate(0,492,852)"></rect>
            <rect x="474" y="906" width="36" height="36" transform="rotate(0,492,924)"></rect>
            <rect x="474" y="1050" width="36" height="36" transform="rotate(0,492,1068)"></rect>
            <rect x="474" y="1122" width="36" height="36" transform="rotate(0,492,1140)"></rect>
            <rect x="510" y="42" width="36" height="36" transform="rotate(0,528,60)"></rect>
            <rect x="510" y="150" width="36" height="36" transform="rotate(0,528,168)"></rect>
            <rect x="510" y="186" width="36" height="36" transform="rotate(0,528,204)"></rect>
            <rect x="510" y="222" width="36" height="36" transform="rotate(0,528,240)"></rect>
            <rect x="510" y="258" width="36" height="36" transform="rotate(0,528,276)"></rect>
            <rect x="510" y="294" width="36" height="36" transform="rotate(0,528,312)"></rect>
            <rect x="510" y="366" width="36" height="36" transform="rotate(0,528,384)"></rect>
            <rect x="510" y="474" width="36" height="36" transform="rotate(0,528,492)"></rect>
            <rect x="510" y="510" width="36" height="36" transform="rotate(0,528,528)"></rect>
            <rect x="510" y="546" width="36" height="36" transform="rotate(0,528,564)"></rect>
            <rect x="510" y="654" width="36" height="36" transform="rotate(0,528,672)"></rect>
            <rect x="510" y="690" width="36" height="36" transform="rotate(0,528,708)"></rect>
            <rect x="510" y="726" width="36" height="36" transform="rotate(0,528,744)"></rect>
            <rect x="510" y="870" width="36" height="36" transform="rotate(0,528,888)"></rect>
            <rect x="510" y="1014" width="36" height="36" transform="rotate(0,528,1032)"></rect>
            <rect x="510" y="1086" width="36" height="36" transform="rotate(0,528,1104)"></rect>
            <rect x="546" y="78" width="36" height="36" transform="rotate(0,564,96)"></rect>
            <rect x="546" y="114" width="36" height="36" transform="rotate(0,564,132)"></rect>
            <rect x="546" y="150" width="36" height="36" transform="rotate(0,564,168)"></rect>
            <rect x="546" y="258" width="36" height="36" transform="rotate(0,564,276)"></rect>
            <rect x="546" y="330" width="36" height="36" transform="rotate(0,564,348)"></rect>
            <rect x="546" y="438" width="36" height="36" transform="rotate(0,564,456)"></rect>
            <rect x="546" y="582" width="36" height="36" transform="rotate(0,564,600)"></rect>
            <rect x="546" y="618" width="36" height="36" transform="rotate(0,564,636)"></rect>
            <rect x="546" y="654" width="36" height="36" transform="rotate(0,564,672)"></rect>
            <rect x="546" y="870" width="36" height="36" transform="rotate(0,564,888)"></rect>
            <rect x="546" y="942" width="36" height="36" transform="rotate(0,564,960)"></rect>
            <rect x="546" y="1014" width="36" height="36" transform="rotate(0,564,1032)"></rect>
            <rect x="546" y="1086" width="36" height="36" transform="rotate(0,564,1104)"></rect>
            <rect x="546" y="1122" width="36" height="36" transform="rotate(0,564,1140)"></rect>
            <rect x="582" y="6" width="36" height="36" transform="rotate(0,600,24)"></rect>
            <rect x="582" y="42" width="36" height="36" transform="rotate(0,600,60)"></rect>
            <rect x="582" y="78" width="36" height="36" transform="rotate(0,600,96)"></rect>
            <rect x="582" y="150" width="36" height="36" transform="rotate(0,600,168)"></rect>
            <rect x="582" y="222" width="36" height="36" transform="rotate(0,600,240)"></rect>
            <rect x="582" y="330" width="36" height="36" transform="rotate(0,600,348)"></rect>
            <rect x="582" y="366" width="36" height="36" transform="rotate(0,600,384)"></rect>
            <rect x="582" y="438" width="36" height="36" transform="rotate(0,600,456)"></rect>
            <rect x="582" y="690" width="36" height="36" transform="rotate(0,600,708)"></rect>
            <rect x="582" y="834" width="36" height="36" transform="rotate(0,600,852)"></rect>
            <rect x="582" y="906" width="36" height="36" transform="rotate(0,600,924)"></rect>
            <rect x="582" y="942" width="36" height="36" transform="rotate(0,600,960)"></rect>
            <rect x="582" y="978" width="36" height="36" transform="rotate(0,600,996)"></rect>
            <rect x="582" y="1014" width="36" height="36" transform="rotate(0,600,1032)"></rect>
            <rect x="582" y="1050" width="36" height="36" transform="rotate(0,600,1068)"></rect>
            <rect x="582" y="1086" width="36" height="36" transform="rotate(0,600,1104)"></rect>
            <rect x="618" y="42" width="36" height="36" transform="rotate(0,636,60)"></rect>
            <rect x="618" y="78" width="36" height="36" transform="rotate(0,636,96)"></rect>
            <rect x="618" y="150" width="36" height="36" transform="rotate(0,636,168)"></rect>
            <rect x="618" y="258" width="36" height="36" transform="rotate(0,636,276)"></rect>
            <rect x="618" y="294" width="36" height="36" transform="rotate(0,636,312)"></rect>
            <rect x="618" y="366" width="36" height="36" transform="rotate(0,636,384)"></rect>
            <rect x="618" y="438" width="36" height="36" transform="rotate(0,636,456)"></rect>
            <rect x="618" y="474" width="36" height="36" transform="rotate(0,636,492)"></rect>
            <rect x="618" y="510" width="36" height="36" transform="rotate(0,636,528)"></rect>
            <rect x="618" y="582" width="36" height="36" transform="rotate(0,636,600)"></rect>
            <rect x="618" y="618" width="36" height="36" transform="rotate(0,636,636)"></rect>
            <rect x="618" y="654" width="36" height="36" transform="rotate(0,636,672)"></rect>
            <rect x="618" y="726" width="36" height="36" transform="rotate(0,636,744)"></rect>
            <rect x="618" y="798" width="36" height="36" transform="rotate(0,636,816)"></rect>
            <rect x="618" y="870" width="36" height="36" transform="rotate(0,636,888)"></rect>
            <rect x="618" y="942" width="36" height="36" transform="rotate(0,636,960)"></rect>
            <rect x="618" y="978" width="36" height="36" transform="rotate(0,636,996)"></rect>
            <rect x="618" y="1014" width="36" height="36" transform="rotate(0,636,1032)"></rect>
            <rect x="618" y="1050" width="36" height="36" transform="rotate(0,636,1068)"></rect>
            <rect x="618" y="1158" width="36" height="36" transform="rotate(0,636,1176)"></rect>
            <rect x="654" y="6" width="36" height="36" transform="rotate(0,672,24)"></rect>
            <rect x="654" y="78" width="36" height="36" transform="rotate(0,672,96)"></rect>
            <rect x="654" y="150" width="36" height="36" transform="rotate(0,672,168)"></rect>
            <rect x="654" y="186" width="36" height="36" transform="rotate(0,672,204)"></rect>
            <rect x="654" y="222" width="36" height="36" transform="rotate(0,672,240)"></rect>
            <rect x="654" y="258" width="36" height="36" transform="rotate(0,672,276)"></rect>
            <rect x="654" y="294" width="36" height="36" transform="rotate(0,672,312)"></rect>
            <rect x="654" y="330" width="36" height="36" transform="rotate(0,672,348)"></rect>
            <rect x="654" y="510" width="36" height="36" transform="rotate(0,672,528)"></rect>
            <rect x="654" y="546" width="36" height="36" transform="rotate(0,672,564)"></rect>
            <rect x="654" y="618" width="36" height="36" transform="rotate(0,672,636)"></rect>
            <rect x="654" y="654" width="36" height="36" transform="rotate(0,672,672)"></rect>
            <rect x="654" y="798" width="36" height="36" transform="rotate(0,672,816)"></rect>
            <rect x="654" y="834" width="36" height="36" transform="rotate(0,672,852)"></rect>
            <rect x="654" y="978" width="36" height="36" transform="rotate(0,672,996)"></rect>
            <rect x="654" y="1014" width="36" height="36" transform="rotate(0,672,1032)"></rect>
            <rect x="654" y="1050" width="36" height="36" transform="rotate(0,672,1068)"></rect>
            <rect x="654" y="1086" width="36" height="36" transform="rotate(0,672,1104)"></rect>
            <rect x="654" y="1158" width="36" height="36" transform="rotate(0,672,1176)"></rect>
            <rect x="690" y="6" width="36" height="36" transform="rotate(0,708,24)"></rect>
            <rect x="690" y="42" width="36" height="36" transform="rotate(0,708,60)"></rect>
            <rect x="690" y="78" width="36" height="36" transform="rotate(0,708,96)"></rect>
            <rect x="690" y="150" width="36" height="36" transform="rotate(0,708,168)"></rect>
            <rect x="690" y="186" width="36" height="36" transform="rotate(0,708,204)"></rect>
            <rect x="690" y="258" width="36" height="36" transform="rotate(0,708,276)"></rect>
            <rect x="690" y="330" width="36" height="36" transform="rotate(0,708,348)"></rect>
            <rect x="690" y="438" width="36" height="36" transform="rotate(0,708,456)"></rect>
            <rect x="690" y="474" width="36" height="36" transform="rotate(0,708,492)"></rect>
            <rect x="690" y="510" width="36" height="36" transform="rotate(0,708,528)"></rect>
            <rect x="690" y="582" width="36" height="36" transform="rotate(0,708,600)"></rect>
            <rect x="690" y="618" width="36" height="36" transform="rotate(0,708,636)"></rect>
            <rect x="690" y="654" width="36" height="36" transform="rotate(0,708,672)"></rect>
            <rect x="690" y="690" width="36" height="36" transform="rotate(0,708,708)"></rect>
            <rect x="690" y="726" width="36" height="36" transform="rotate(0,708,744)"></rect>
            <rect x="690" y="798" width="36" height="36" transform="rotate(0,708,816)"></rect>
            <rect x="690" y="834" width="36" height="36" transform="rotate(0,708,852)"></rect>
            <rect x="690" y="870" width="36" height="36" transform="rotate(0,708,888)"></rect>
            <rect x="690" y="906" width="36" height="36" transform="rotate(0,708,924)"></rect>
            <rect x="690" y="978" width="36" height="36" transform="rotate(0,708,996)"></rect>
            <rect x="690" y="1014" width="36" height="36" transform="rotate(0,708,1032)"></rect>
            <rect x="690" y="1050" width="36" height="36" transform="rotate(0,708,1068)"></rect>
            <rect x="690" y="1086" width="36" height="36" transform="rotate(0,708,1104)"></rect>
            <rect x="690" y="1122" width="36" height="36" transform="rotate(0,708,1140)"></rect>
            <rect x="726" y="42" width="36" height="36" transform="rotate(0,744,60)"></rect>
            <rect x="726" y="114" width="36" height="36" transform="rotate(0,744,132)"></rect>
            <rect x="726" y="150" width="36" height="36" transform="rotate(0,744,168)"></rect>
            <rect x="726" y="186" width="36" height="36" transform="rotate(0,744,204)"></rect>
            <rect x="726" y="222" width="36" height="36" transform="rotate(0,744,240)"></rect>
            <rect x="726" y="366" width="36" height="36" transform="rotate(0,744,384)"></rect>
            <rect x="726" y="474" width="36" height="36" transform="rotate(0,744,492)"></rect>
            <rect x="726" y="546" width="36" height="36" transform="rotate(0,744,564)"></rect>
            <rect x="726" y="942" width="36" height="36" transform="rotate(0,744,960)"></rect>
            <rect x="726" y="978" width="36" height="36" transform="rotate(0,744,996)"></rect>
            <rect x="726" y="1050" width="36" height="36" transform="rotate(0,744,1068)"></rect>
            <rect x="726" y="1158" width="36" height="36" transform="rotate(0,744,1176)"></rect>
            <rect x="762" y="6" width="36" height="36" transform="rotate(0,780,24)"></rect>
            <rect x="762" y="114" width="36" height="36" transform="rotate(0,780,132)"></rect>
            <rect x="762" y="186" width="36" height="36" transform="rotate(0,780,204)"></rect>
            <rect x="762" y="294" width="36" height="36" transform="rotate(0,780,312)"></rect>
            <rect x="762" y="330" width="36" height="36" transform="rotate(0,780,348)"></rect>
            <rect x="762" y="366" width="36" height="36" transform="rotate(0,780,384)"></rect>
            <rect x="762" y="510" width="36" height="36" transform="rotate(0,780,528)"></rect>
            <rect x="762" y="546" width="36" height="36" transform="rotate(0,780,564)"></rect>
            <rect x="762" y="618" width="36" height="36" transform="rotate(0,780,636)"></rect>
            <rect x="762" y="726" width="36" height="36" transform="rotate(0,780,744)"></rect>
            <rect x="762" y="762" width="36" height="36" transform="rotate(0,780,780)"></rect>
            <rect x="762" y="798" width="36" height="36" transform="rotate(0,780,816)"></rect>
            <rect x="762" y="870" width="36" height="36" transform="rotate(0,780,888)"></rect>
            <rect x="762" y="942" width="36" height="36" transform="rotate(0,780,960)"></rect>
            <rect x="762" y="1014" width="36" height="36" transform="rotate(0,780,1032)"></rect>
            <rect x="762" y="1050" width="36" height="36" transform="rotate(0,780,1068)"></rect>
            <rect x="762" y="1086" width="36" height="36" transform="rotate(0,780,1104)"></rect>
            <rect x="798" y="6" width="36" height="36" transform="rotate(0,816,24)"></rect>
            <rect x="798" y="186" width="36" height="36" transform="rotate(0,816,204)"></rect>
            <rect x="798" y="222" width="36" height="36" transform="rotate(0,816,240)"></rect>
            <rect x="798" y="258" width="36" height="36" transform="rotate(0,816,276)"></rect>
            <rect x="798" y="366" width="36" height="36" transform="rotate(0,816,384)"></rect>
            <rect x="798" y="402" width="36" height="36" transform="rotate(0,816,420)"></rect>
            <rect x="798" y="438" width="36" height="36" transform="rotate(0,816,456)"></rect>
            <rect x="798" y="474" width="36" height="36" transform="rotate(0,816,492)"></rect>
            <rect x="798" y="510" width="36" height="36" transform="rotate(0,816,528)"></rect>
            <rect x="798" y="546" width="36" height="36" transform="rotate(0,816,564)"></rect>
            <rect x="798" y="798" width="36" height="36" transform="rotate(0,816,816)"></rect>
            <rect x="798" y="834" width="36" height="36" transform="rotate(0,816,852)"></rect>
            <rect x="798" y="942" width="36" height="36" transform="rotate(0,816,960)"></rect>
            <rect x="798" y="1014" width="36" height="36" transform="rotate(0,816,1032)"></rect>
            <rect x="798" y="1122" width="36" height="36" transform="rotate(0,816,1140)"></rect>
            <rect x="798" y="1158" width="36" height="36" transform="rotate(0,816,1176)"></rect>
            <rect x="834" y="6" width="36" height="36" transform="rotate(0,852,24)"></rect>
            <rect x="834" y="114" width="36" height="36" transform="rotate(0,852,132)"></rect>
            <rect x="834" y="150" width="36" height="36" transform="rotate(0,852,168)"></rect>
            <rect x="834" y="258" width="36" height="36" transform="rotate(0,852,276)"></rect>
            <rect x="834" y="294" width="36" height="36" transform="rotate(0,852,312)"></rect>
            <rect x="834" y="402" width="36" height="36" transform="rotate(0,852,420)"></rect>
            <rect x="834" y="510" width="36" height="36" transform="rotate(0,852,528)"></rect>
            <rect x="834" y="582" width="36" height="36" transform="rotate(0,852,600)"></rect>
            <rect x="834" y="618" width="36" height="36" transform="rotate(0,852,636)"></rect>
            <rect x="834" y="726" width="36" height="36" transform="rotate(0,852,744)"></rect>
            <rect x="834" y="798" width="36" height="36" transform="rotate(0,852,816)"></rect>
            <rect x="834" y="834" width="36" height="36" transform="rotate(0,852,852)"></rect>
            <rect x="834" y="870" width="36" height="36" transform="rotate(0,852,888)"></rect>
            <rect x="834" y="978" width="36" height="36" transform="rotate(0,852,996)"></rect>
            <rect x="834" y="1014" width="36" height="36" transform="rotate(0,852,1032)"></rect>
            <rect x="834" y="1086" width="36" height="36" transform="rotate(0,852,1104)"></rect>
            <rect x="834" y="1122" width="36" height="36" transform="rotate(0,852,1140)"></rect>
            <rect x="834" y="1158" width="36" height="36" transform="rotate(0,852,1176)"></rect>
            <rect x="870" y="6" width="36" height="36" transform="rotate(0,888,24)"></rect>
            <rect x="870" y="42" width="36" height="36" transform="rotate(0,888,60)"></rect>
            <rect x="870" y="186" width="36" height="36" transform="rotate(0,888,204)"></rect>
            <rect x="870" y="222" width="36" height="36" transform="rotate(0,888,240)"></rect>
            <rect x="870" y="294" width="36" height="36" transform="rotate(0,888,312)"></rect>
            <rect x="870" y="366" width="36" height="36" transform="rotate(0,888,384)"></rect>
            <rect x="870" y="402" width="36" height="36" transform="rotate(0,888,420)"></rect>
            <rect x="870" y="438" width="36" height="36" transform="rotate(0,888,456)"></rect>
            <rect x="870" y="474" width="36" height="36" transform="rotate(0,888,492)"></rect>
            <rect x="870" y="546" width="36" height="36" transform="rotate(0,888,564)"></rect>
            <rect x="870" y="654" width="36" height="36" transform="rotate(0,888,672)"></rect>
            <rect x="870" y="726" width="36" height="36" transform="rotate(0,888,744)"></rect>
            <rect x="870" y="834" width="36" height="36" transform="rotate(0,888,852)"></rect>
            <rect x="870" y="870" width="36" height="36" transform="rotate(0,888,888)"></rect>
            <rect x="870" y="906" width="36" height="36" transform="rotate(0,888,924)"></rect>
            <rect x="870" y="942" width="36" height="36" transform="rotate(0,888,960)"></rect>
            <rect x="870" y="978" width="36" height="36" transform="rotate(0,888,996)"></rect>
            <rect x="870" y="1014" width="36" height="36" transform="rotate(0,888,1032)"></rect>
            <rect x="870" y="1122" width="36" height="36" transform="rotate(0,888,1140)"></rect>
            <rect x="870" y="1158" width="36" height="36" transform="rotate(0,888,1176)"></rect>
            <rect x="906" y="294" width="36" height="36" transform="rotate(0,924,312)"></rect>
            <rect x="906" y="438" width="36" height="36" transform="rotate(0,924,456)"></rect>
            <rect x="906" y="510" width="36" height="36" transform="rotate(0,924,528)"></rect>
            <rect x="906" y="546" width="36" height="36" transform="rotate(0,924,564)"></rect>
            <rect x="906" y="654" width="36" height="36" transform="rotate(0,924,672)"></rect>
            <rect x="906" y="690" width="36" height="36" transform="rotate(0,924,708)"></rect>
            <rect x="906" y="726" width="36" height="36" transform="rotate(0,924,744)"></rect>
            <rect x="906" y="762" width="36" height="36" transform="rotate(0,924,780)"></rect>
            <rect x="906" y="834" width="36" height="36" transform="rotate(0,924,852)"></rect>
            <rect x="906" y="870" width="36" height="36" transform="rotate(0,924,888)"></rect>
            <rect x="906" y="1014" width="36" height="36" transform="rotate(0,924,1032)"></rect>
            <rect x="942" y="294" width="36" height="36" transform="rotate(0,960,312)"></rect>
            <rect x="942" y="330" width="36" height="36" transform="rotate(0,960,348)"></rect>
            <rect x="942" y="402" width="36" height="36" transform="rotate(0,960,420)"></rect>
            <rect x="942" y="510" width="36" height="36" transform="rotate(0,960,528)"></rect>
            <rect x="942" y="546" width="36" height="36" transform="rotate(0,960,564)"></rect>
            <rect x="942" y="654" width="36" height="36" transform="rotate(0,960,672)"></rect>
            <rect x="942" y="690" width="36" height="36" transform="rotate(0,960,708)"></rect>
            <rect x="942" y="726" width="36" height="36" transform="rotate(0,960,744)"></rect>
            <rect x="942" y="834" width="36" height="36" transform="rotate(0,960,852)"></rect>
            <rect x="942" y="870" width="36" height="36" transform="rotate(0,960,888)"></rect>
            <rect x="942" y="942" width="36" height="36" transform="rotate(0,960,960)"></rect>
            <rect x="942" y="1014" width="36" height="36" transform="rotate(0,960,1032)"></rect>
            <rect x="942" y="1050" width="36" height="36" transform="rotate(0,960,1068)"></rect>
            <rect x="942" y="1086" width="36" height="36" transform="rotate(0,960,1104)"></rect>
            <rect x="978" y="330" width="36" height="36" transform="rotate(0,996,348)"></rect>
            <rect x="978" y="438" width="36" height="36" transform="rotate(0,996,456)"></rect>
            <rect x="978" y="654" width="36" height="36" transform="rotate(0,996,672)"></rect>
            <rect x="978" y="762" width="36" height="36" transform="rotate(0,996,780)"></rect>
            <rect x="978" y="798" width="36" height="36" transform="rotate(0,996,816)"></rect>
            <rect x="978" y="834" width="36" height="36" transform="rotate(0,996,852)"></rect>
            <rect x="978" y="870" width="36" height="36" transform="rotate(0,996,888)"></rect>
            <rect x="978" y="1014" width="36" height="36" transform="rotate(0,996,1032)"></rect>
            <rect x="978" y="1050" width="36" height="36" transform="rotate(0,996,1068)"></rect>
            <rect x="978" y="1086" width="36" height="36" transform="rotate(0,996,1104)"></rect>
            <rect x="978" y="1122" width="36" height="36" transform="rotate(0,996,1140)"></rect>
            <rect x="1014" y="294" width="36" height="36" transform="rotate(0,1032,312)"></rect>
            <rect x="1014" y="366" width="36" height="36" transform="rotate(0,1032,384)"></rect>
            <rect x="1014" y="438" width="36" height="36" transform="rotate(0,1032,456)"></rect>
            <rect x="1014" y="474" width="36" height="36" transform="rotate(0,1032,492)"></rect>
            <rect x="1014" y="510" width="36" height="36" transform="rotate(0,1032,528)"></rect>
            <rect x="1014" y="582" width="36" height="36" transform="rotate(0,1032,600)"></rect>
            <rect x="1014" y="618" width="36" height="36" transform="rotate(0,1032,636)"></rect>
            <rect x="1014" y="726" width="36" height="36" transform="rotate(0,1032,744)"></rect>
            <rect x="1014" y="762" width="36" height="36" transform="rotate(0,1032,780)"></rect>
            <rect x="1014" y="798" width="36" height="36" transform="rotate(0,1032,816)"></rect>
            <rect x="1014" y="834" width="36" height="36" transform="rotate(0,1032,852)"></rect>
            <rect x="1014" y="870" width="36" height="36" transform="rotate(0,1032,888)"></rect>
            <rect x="1014" y="906" width="36" height="36" transform="rotate(0,1032,924)"></rect>
            <rect x="1014" y="942" width="36" height="36" transform="rotate(0,1032,960)"></rect>
            <rect x="1014" y="978" width="36" height="36" transform="rotate(0,1032,996)"></rect>
            <rect x="1014" y="1014" width="36" height="36" transform="rotate(0,1032,1032)"></rect>
            <rect x="1014" y="1050" width="36" height="36" transform="rotate(0,1032,1068)"></rect>
            <rect x="1014" y="1122" width="36" height="36" transform="rotate(0,1032,1140)"></rect>
            <rect x="1050" y="294" width="36" height="36" transform="rotate(0,1068,312)"></rect>
            <rect x="1050" y="330" width="36" height="36" transform="rotate(0,1068,348)"></rect>
            <rect x="1050" y="402" width="36" height="36" transform="rotate(0,1068,420)"></rect>
            <rect x="1050" y="510" width="36" height="36" transform="rotate(0,1068,528)"></rect>
            <rect x="1050" y="618" width="36" height="36" transform="rotate(0,1068,636)"></rect>
            <rect x="1050" y="690" width="36" height="36" transform="rotate(0,1068,708)"></rect>
            <rect x="1050" y="762" width="36" height="36" transform="rotate(0,1068,780)"></rect>
            <rect x="1050" y="798" width="36" height="36" transform="rotate(0,1068,816)"></rect>
            <rect x="1050" y="870" width="36" height="36" transform="rotate(0,1068,888)"></rect>
            <rect x="1050" y="906" width="36" height="36" transform="rotate(0,1068,924)"></rect>
            <rect x="1050" y="978" width="36" height="36" transform="rotate(0,1068,996)"></rect>
            <rect x="1050" y="1122" width="36" height="36" transform="rotate(0,1068,1140)"></rect>
            <rect x="1086" y="366" width="36" height="36" transform="rotate(0,1104,384)"></rect>
            <rect x="1086" y="402" width="36" height="36" transform="rotate(0,1104,420)"></rect>
            <rect x="1086" y="510" width="36" height="36" transform="rotate(0,1104,528)"></rect>
            <rect x="1086" y="546" width="36" height="36" transform="rotate(0,1104,564)"></rect>
            <rect x="1086" y="582" width="36" height="36" transform="rotate(0,1104,600)"></rect>
            <rect x="1086" y="618" width="36" height="36" transform="rotate(0,1104,636)"></rect>
            <rect x="1086" y="870" width="36" height="36" transform="rotate(0,1104,888)"></rect>
            <rect x="1086" y="1014" width="36" height="36" transform="rotate(0,1104,1032)"></rect>
            <rect x="1086" y="1050" width="36" height="36" transform="rotate(0,1104,1068)"></rect>
            <rect x="1086" y="1122" width="36" height="36" transform="rotate(0,1104,1140)"></rect>
            <rect x="1086" y="1158" width="36" height="36" transform="rotate(0,1104,1176)"></rect>
            <rect x="1122" y="330" width="36" height="36" transform="rotate(0,1140,348)"></rect>
            <rect x="1122" y="474" width="36" height="36" transform="rotate(0,1140,492)"></rect>
            <rect x="1122" y="510" width="36" height="36" transform="rotate(0,1140,528)"></rect>
            <rect x="1122" y="582" width="36" height="36" transform="rotate(0,1140,600)"></rect>
            <rect x="1122" y="618" width="36" height="36" transform="rotate(0,1140,636)"></rect>
            <rect x="1122" y="654" width="36" height="36" transform="rotate(0,1140,672)"></rect>
            <rect x="1122" y="690" width="36" height="36" transform="rotate(0,1140,708)"></rect>
            <rect x="1122" y="726" width="36" height="36" transform="rotate(0,1140,744)"></rect>
            <rect x="1122" y="798" width="36" height="36" transform="rotate(0,1140,816)"></rect>
            <rect x="1122" y="834" width="36" height="36" transform="rotate(0,1140,852)"></rect>
            <rect x="1122" y="906" width="36" height="36" transform="rotate(0,1140,924)"></rect>
            <rect x="1122" y="942" width="36" height="36" transform="rotate(0,1140,960)"></rect>
            <rect x="1122" y="1050" width="36" height="36" transform="rotate(0,1140,1068)"></rect>
            <rect x="1122" y="1122" width="36" height="36" transform="rotate(0,1140,1140)"></rect>
            <rect x="1122" y="1158" width="36" height="36" transform="rotate(0,1140,1176)"></rect>
            <rect x="1158" y="330" width="36" height="36" transform="rotate(0,1176,348)"></rect>
            <rect x="1158" y="366" width="36" height="36" transform="rotate(0,1176,384)"></rect>
            <rect x="1158" y="402" width="36" height="36" transform="rotate(0,1176,420)"></rect>
            <rect x="1158" y="438" width="36" height="36" transform="rotate(0,1176,456)"></rect>
            <rect x="1158" y="474" width="36" height="36" transform="rotate(0,1176,492)"></rect>
            <rect x="1158" y="510" width="36" height="36" transform="rotate(0,1176,528)"></rect>
            <rect x="1158" y="726" width="36" height="36" transform="rotate(0,1176,744)"></rect>
            <rect x="1158" y="834" width="36" height="36" transform="rotate(0,1176,852)"></rect>
            <rect x="1158" y="870" width="36" height="36" transform="rotate(0,1176,888)"></rect>
            <rect x="1158" y="906" width="36" height="36" transform="rotate(0,1176,924)"></rect>
            <rect x="1158" y="942" width="36" height="36" transform="rotate(0,1176,960)"></rect>
            <rect x="1158" y="1014" width="36" height="36" transform="rotate(0,1176,1032)"></rect>
            <rect x="1158" y="1086" width="36" height="36" transform="rotate(0,1176,1104)"></rect>
        </clipPath>
        <clipPath id="clip-path-corners-square-color-0-0">
            <path clip-rule="evenodd" d="M 6 6v 252h 252v -252zM 42 42h 180v 180h -180z" transform="rotate(0,132,132)">
            </path>
        </clipPath>
        <clipPath id="clip-path-corners-dot-color-0-0">
            <rect x="78" y="78" width="108" height="108" transform="rotate(0,132,132)"></rect>
        </clipPath>
        <clipPath id="clip-path-corners-square-color-1-0">
            <path clip-rule="evenodd" d="M 942 6v 252h 252v -252zM 978 42h 180v 180h -180z"
                transform="rotate(90,1068,132)"></path>
        </clipPath>
        <clipPath id="clip-path-corners-dot-color-1-0">
            <rect x="1014" y="78" width="108" height="108" transform="rotate(90,1068,132)"></rect>
        </clipPath>
        <clipPath id="clip-path-corners-square-color-0-1">
            <path clip-rule="evenodd" d="M 6 942v 252h 252v -252zM 42 978h 180v 180h -180z"
                transform="rotate(-90,132,1068)"></path>
        </clipPath>
        <clipPath id="clip-path-corners-dot-color-0-1">
            <rect x="78" y="1014" width="108" height="108" transform="rotate(-90,132,1068)"></rect>
        </clipPath>
    </defs>
    <rect x="0" y="0" height="1200" width="1200" clip-path="url('#clip-path-background-color')"
        fill="rgba(255,255,255, 0)"></rect>
    <rect x="0" y="0" height="1200" width="1200" clip-path="url('#clip-path-dot-color')" fill="rgb(33,33,33)"></rect>
    <rect x="6" y="6" height="252" width="252" clip-path="url('#clip-path-corners-square-color-0-0')" fill="#c18e61">
    </rect>
    <rect x="78" y="78" height="108" width="108" clip-path="url('#clip-path-corners-dot-color-0-0')" fill="#563969">
    </rect>
    <rect x="942" y="6" height="252" width="252" clip-path="url('#clip-path-corners-square-color-1-0')" fill="#c18e61">
    </rect>
    <rect x="1014" y="78" height="108" width="108" clip-path="url('#clip-path-corners-dot-color-1-0')" fill="#563969">
    </rect>
    <rect x="6" y="942" height="252" width="252" clip-path="url('#clip-path-corners-square-color-0-1')" fill="#c18e61">
    </rect>
    <rect x="78" y="1014" height="108" width="108" clip-path="url('#clip-path-corners-dot-color-0-1')" fill="#563969">
    </rect>
</svg>